HIERARCHY
ROOT hip
{
	OFFSET 0.000000 0.000000 0.000000 
	CHANNELS 6 Xposition Yposition Zposition Xrotation Zrotation Yrotation
	JOINT abdomen
	{
		OFFSET 0.000000 3.402643 0.000000 
		CHANNELS 3 Xrotation Zrotation Yrotation
		JOINT chest
		{
			OFFSET 0.000000 8.438565 -0.680529 
			CHANNELS 3 Xrotation Zrotation Yrotation
			JOINT neck
			{
				OFFSET 0.000000 10.207942 -0.272212 
				CHANNELS 3 Xrotation Zrotation Yrotation
				JOINT head
				{
					OFFSET 0.000000 3.130431 0.000000 
					CHANNELS 3 Xrotation Zrotation Yrotation
					End Site
					{
						OFFSET 0.000000 3.130435 0.000000 
					}
				}
			}
			JOINT lCollar
			{
				OFFSET 3.470700 6.669187 -0.816635 
				CHANNELS 3 Yrotation Zrotation Xrotation
				JOINT lShldr
				{
					OFFSET 3.198488 0.000000 0.000000 
					CHANNELS 3 Zrotation Yrotation Xrotation
					JOINT lForeArm
					{
						OFFSET 10.139888 0.000000 0.000000 
						CHANNELS 3 Yrotation Zrotation Xrotation
						JOINT lHand
						{
							OFFSET 8.370511 0.000000 0.000000 
							CHANNELS 3 Zrotation Yrotation Xrotation
							End Site
							{
								OFFSET 4.083176 0.000000 0.000000 
							}
						}
					}
				}
			}
			JOINT rCollar
			{
				OFFSET -3.470700 6.669187 -0.816635 
				CHANNELS 3 Yrotation Zrotation Xrotation
				JOINT rShldr
				{
					OFFSET -3.198488 0.000000 0.000000 
					CHANNELS 3 Zrotation Yrotation Xrotation
					JOINT rForeArm
					{
						OFFSET -10.139888 0.000000 0.000000 
						CHANNELS 3 Yrotation Zrotation Xrotation
						JOINT rHand
						{
							OFFSET -8.370511 0.000000 0.000000 
							CHANNELS 3 Zrotation Yrotation Xrotation
							End Site
							{
								OFFSET -4.083176 0.000000 0.000000 
							}
						}
					}
				}
			}
		}
	}
	JOINT lThigh
	{
		OFFSET 5.308129 -1.633274 1.361059 
		CHANNELS 3 Xrotation Zrotation Yrotation
		JOINT lShin
		{
			OFFSET -2.041588 -20.007561 0.000000 
			CHANNELS 3 Xrotation Zrotation Yrotation
			JOINT lFoot
			{
				OFFSET 0.000000 -19.190928 -1.224953 
				CHANNELS 3 Xrotation Yrotation Zrotation
				End Site
				{
					OFFSET 0.000000 -2.449906 4.627600 
				}
			}
		}
	}
	JOINT rThigh
	{
		OFFSET -5.308129 -1.633274 1.361059 
		CHANNELS 3 Xrotation Zrotation Yrotation
		JOINT rShin
		{
			OFFSET 2.041588 -20.007561 0.000000 
			CHANNELS 3 Xrotation Zrotation Yrotation
			JOINT rFoot
			{
				OFFSET 0.000000 -19.190928 -1.224953 
				CHANNELS 3 Xrotation Yrotation Zrotation
				End Site
				{
					OFFSET 0.000000 -2.449906 4.627600 
				}
			}
		}
	}
}
MOTION
Frames: 8
Frame Time: 0.016667
-9.323739 52.625557 -21.388388 -2.636961 -4.790414 -9.270970 28.847010 7.723541 5.016538 4.861464 -2.639854 9.586787 5.859143 2.109810 0.105638 26.215054 5.415236 -5.424140 -15.955517 0.483398 -0.001345 -80.195770 50.000000 -45.000000 -109.824791 -5.000000 -17.068308 -3.998666 -13.047987 -18.238655 17.570715 -7.344081 0.375273 69.622246 33.769955 24.640524 108.678864 -5.000000 10.321376 33.969269 -5.887865 -20.829266 -50.353500 0.371431 -4.912810 60.243252 0.634702 2.406127 -20.569759 2.871145 -7.425135 39.419136 3.973197 -11.975281 35.623741 4.277768 3.805171 26.178488 -8.308500 9.228153 
-10.898078 52.935707 -15.612404 -3.057918 -8.399882 -6.713150 29.590073 10.895407 5.980510 5.629409 -2.344094 7.738461 6.837824 2.252286 0.133813 26.125366 6.320879 -5.285312 -15.022931 -2.596355 -0.170037 -80.462288 50.000000 -45.000000 -108.088432 -5.000000 -14.983896 -5.096400 -13.965621 -16.990194 17.415251 -5.803170 0.294342 69.273636 27.480379 20.053036 103.832184 -5.000000 6.268949 34.762894 -7.629277 -18.802923 -43.844692 3.671662 -8.691898 50.009590 -1.370744 -0.756601 -17.454329 3.343947 -9.511438 35.428715 7.381970 -12.677823 47.983955 5.679363 7.843356 28.981993 -10.163140 12.082099 
-12.472405 53.245846 -9.836427 -3.648724 -11.981820 -4.104491 30.432711 14.054453 7.004147 6.395459 -2.026576 5.881307 7.816668 2.385103 0.163077 26.051069 7.227005 -5.138134 -14.104964 -5.668779 -0.291173 -80.541359 43.068886 -45.000000 -106.706772 -5.000000 -13.241789 -6.252398 -14.842404 -15.720148 17.261946 -4.252494 0.213219 69.489143 21.176952 15.732927 99.631859 -5.000000 3.355988 35.486027 -9.441530 -16.801203 -37.529373 7.372925 -12.117210 39.917835 -3.931432 -3.529302 -14.305802 3.683182 -11.651087 31.355797 10.711511 -13.644649 60.439278 6.186875 12.159369 31.807690 -11.880532 15.040782 
-13.826732 53.279083 -4.120175 -4.903419 -10.328480 -1.518949 31.248030 12.331648 4.709430 6.019843 -2.009071 4.454741 8.032022 3.858900 0.375794 26.838877 7.961275 -5.531053 -14.201394 -8.496979 -0.439599 -75.585083 33.922337 -45.000000 -105.871582 -5.000000 -11.425051 -8.348877 -16.133347 -14.571196 16.502531 -0.001584 -0.045117 67.137726 13.102297 4.841881 94.684189 -5.000000 1.016052 35.094818 -11.623645 -11.613317 -30.438246 7.724131 -8.583865 38.160625 -4.136333 -3.503277 -10.475434 2.054486 -14.348774 25.901087 8.480921 -21.919754 71.882820 3.138457 8.766456 26.392349 -13.070474 12.333485 
-15.181056 53.312332 1.596066 -6.070497 -8.621709 1.016451 32.153503 10.651962 2.426592 5.643268 -1.990971 3.028509 8.253869 5.332382 0.590164 27.618414 8.704234 -5.906837 -14.315218 -11.325122 -0.588855 -72.396263 24.399527 -45.000000 -105.398766 -5.000000 -9.820560 -10.503925 -17.350584 -13.365257 15.760849 4.246707 -0.246229 66.408691 4.758185 -5.469719 90.127426 3.196460 0.193758 34.620316 -13.804813 -6.404096 -23.328526 7.626468 -5.043621 36.439602 -4.327643 -3.480500 -6.798817 0.100966 -16.882051 20.847822 5.506317 -29.863346 83.501221 0.851158 4.869362 20.883224 -14.017765 9.544868 
-16.368830 53.167763 7.197718 -6.705670 -8.664133 2.438998 33.094444 11.055867 2.759072 4.996802 -2.050655 0.996386 7.837552 4.830805 0.536367 27.439646 8.703930 -5.927617 -14.398769 -13.470559 -0.705777 -68.319557 14.125129 -33.880535 -104.549332 -5.000000 -6.337644 -13.451314 -18.295969 -10.131044 14.706932 6.592784 -0.349450 66.176056 -4.722254 -16.849619 88.172455 5.000000 0.429199 35.098240 -13.917081 -6.229877 -17.403715 8.716860 -3.179451 38.094509 -3.931339 -3.314993 -9.424870 0.142316 -14.872054 14.242780 2.613298 -33.950630 93.010712 -0.175370 2.790649 15.640710 -13.670607 6.575092 
-17.390043 52.845402 12.684769 -6.875480 -10.485873 2.790696 34.238667 13.448576 5.773899 4.097141 -2.206585 -1.641650 6.774409 2.356689 0.236454 26.311737 7.960351 -5.600099 -14.457425 -14.923574 -0.785545 -65.863136 2.172951 -12.946429 -104.781784 -5.000000 -1.197127 -17.298212 -18.657709 -4.886604 13.323023 7.031873 -0.373367 67.072617 -15.302134 -29.635550 88.813301 5.000000 0.467287 36.518074 -11.833913 -11.026109 -12.590833 11.332484 -2.855807 43.063225 -3.049399 -2.953025 -18.497538 1.545853 -8.234275 5.783047 0.282439 -34.147511 100.272301 -0.566720 2.729630 10.886851 -12.026648 3.635710 
-18.411253 52.523037 18.171822 -7.058990 -12.315933 3.146954 35.678928 15.743518 8.865799 3.198936 -2.389429 -4.270313 5.732484 -0.121712 -0.021113 25.176836 7.225665 -5.255611 -14.518180 -16.366810 -0.865259 -67.831306 -9.855473 7.770398 -107.009483 5.000000 4.826884 -21.264366 -18.492989 0.292937 11.939226 7.461208 -0.395631 70.593193 -25.380747 -43.489902 89.514732 5.000000 0.255038 37.845268 -9.596202 -15.715704 -7.733635 13.905129 -2.282000 48.075371 -2.171368 -2.520796 -27.689125 1.819239 -1.440350 -2.655322 -2.024577 -33.994102 107.525757 -0.918368 2.630664 6.178503 -10.205544 0.803216 
